<mxfile host="app.diagrams.net" modified="2023-11-15T08:58:52.772Z" agent="Mozilla/5.0 (Windows NT 10.0; Win64; x64) AppleWebKit/537.36 (KHTML, like Gecko) Chrome/119.0.0.0 Safari/537.36" etag="bQBrjUHr4YFYwcQLgeaR" version="22.1.1" type="github">
  <diagram name="Page-1" id="3X4WoAXBAAbkGfH8DCw9">
    <mxGraphModel dx="1434" dy="782" grid="1" gridSize="10" guides="1" tooltips="1" connect="1" arrows="1" fold="1" page="1" pageScale="1" pageWidth="850" pageHeight="1100" math="0" shadow="0">
      <root>
        <mxCell id="0" />
        <mxCell id="1" parent="0" />
        <mxCell id="RPfIYjRPNadJRH_iX7iX-3" value="Открыть смену" style="edgeStyle=orthogonalEdgeStyle;rounded=0;orthogonalLoop=1;jettySize=auto;html=1;" parent="1" source="RPfIYjRPNadJRH_iX7iX-1" target="RPfIYjRPNadJRH_iX7iX-2" edge="1">
          <mxGeometry relative="1" as="geometry" />
        </mxCell>
        <mxCell id="RPfIYjRPNadJRH_iX7iX-1" value="Рабочий центр" style="rounded=1;whiteSpace=wrap;html=1;fillColor=#f5f5f5;fontColor=#333333;strokeColor=#666666;" parent="1" vertex="1">
          <mxGeometry x="360" y="120" width="190" height="60" as="geometry" />
        </mxCell>
        <mxCell id="RPfIYjRPNadJRH_iX7iX-5" value="Нет" style="edgeStyle=orthogonalEdgeStyle;rounded=0;orthogonalLoop=1;jettySize=auto;html=1;" parent="1" source="RPfIYjRPNadJRH_iX7iX-2" target="RPfIYjRPNadJRH_iX7iX-4" edge="1">
          <mxGeometry relative="1" as="geometry" />
        </mxCell>
        <mxCell id="RPfIYjRPNadJRH_iX7iX-11" value="Да" style="edgeStyle=orthogonalEdgeStyle;rounded=0;orthogonalLoop=1;jettySize=auto;html=1;" parent="1" source="RPfIYjRPNadJRH_iX7iX-2" target="RPfIYjRPNadJRH_iX7iX-10" edge="1">
          <mxGeometry relative="1" as="geometry" />
        </mxCell>
        <mxCell id="RPfIYjRPNadJRH_iX7iX-2" value="Есть смены других операторов на данном РЦ?" style="rhombus;whiteSpace=wrap;html=1;fillColor=#f5f5f5;strokeColor=#666666;fontColor=#333333;rounded=1;" parent="1" vertex="1">
          <mxGeometry x="303.75" y="240" width="302.5" height="160" as="geometry" />
        </mxCell>
        <mxCell id="RPfIYjRPNadJRH_iX7iX-4" value="Диалог&lt;br&gt;&quot;Открытие смены&quot;" style="whiteSpace=wrap;html=1;fillColor=#d5e8d4;strokeColor=#82b366;rounded=1;" parent="1" vertex="1">
          <mxGeometry x="680" y="290" width="120" height="60" as="geometry" />
        </mxCell>
        <mxCell id="RPfIYjRPNadJRH_iX7iX-14" value="Да" style="edgeStyle=orthogonalEdgeStyle;rounded=0;orthogonalLoop=1;jettySize=auto;html=1;" parent="1" source="RPfIYjRPNadJRH_iX7iX-10" target="RPfIYjRPNadJRH_iX7iX-13" edge="1">
          <mxGeometry relative="1" as="geometry" />
        </mxCell>
        <mxCell id="RPfIYjRPNadJRH_iX7iX-21" value="Нет" style="edgeStyle=orthogonalEdgeStyle;rounded=0;orthogonalLoop=1;jettySize=auto;html=1;" parent="1" source="RPfIYjRPNadJRH_iX7iX-10" target="RPfIYjRPNadJRH_iX7iX-20" edge="1">
          <mxGeometry relative="1" as="geometry" />
        </mxCell>
        <mxCell id="RPfIYjRPNadJRH_iX7iX-10" value="На РЦ включена настройка &quot;Разрешить открытие больше одной смены оператора одновременно&quot;" style="rhombus;whiteSpace=wrap;html=1;fillColor=#f5f5f5;strokeColor=#666666;fontColor=#333333;rounded=1;" parent="1" vertex="1">
          <mxGeometry x="293.75" y="440" width="322.5" height="250" as="geometry" />
        </mxCell>
        <mxCell id="RPfIYjRPNadJRH_iX7iX-16" value="Закрыть смену" style="edgeStyle=orthogonalEdgeStyle;rounded=0;orthogonalLoop=1;jettySize=auto;html=1;fillColor=#dae8fc;strokeColor=#6c8ebf;" parent="1" source="RPfIYjRPNadJRH_iX7iX-13" target="RPfIYjRPNadJRH_iX7iX-15" edge="1">
          <mxGeometry relative="1" as="geometry" />
        </mxCell>
        <mxCell id="RPfIYjRPNadJRH_iX7iX-19" value="Совместная работа" style="edgeStyle=orthogonalEdgeStyle;rounded=0;orthogonalLoop=1;jettySize=auto;html=1;" parent="1" source="RPfIYjRPNadJRH_iX7iX-13" target="RPfIYjRPNadJRH_iX7iX-18" edge="1">
          <mxGeometry relative="1" as="geometry" />
        </mxCell>
        <mxCell id="RPfIYjRPNadJRH_iX7iX-23" value="Отмена" style="edgeStyle=orthogonalEdgeStyle;rounded=0;orthogonalLoop=1;jettySize=auto;html=1;entryX=0;entryY=0.5;entryDx=0;entryDy=0;exitX=0.001;exitY=0.434;exitDx=0;exitDy=0;exitPerimeter=0;fillColor=#dae8fc;strokeColor=#6c8ebf;" parent="1" source="RPfIYjRPNadJRH_iX7iX-13" target="RPfIYjRPNadJRH_iX7iX-1" edge="1">
          <mxGeometry x="-0.8921" relative="1" as="geometry">
            <mxPoint x="243.3675" y="780.3999999999999" as="sourcePoint" />
            <mxPoint x="340" y="140" as="targetPoint" />
            <Array as="points">
              <mxPoint x="243" y="801" />
              <mxPoint x="170" y="800" />
              <mxPoint x="170" y="150" />
            </Array>
            <mxPoint as="offset" />
          </mxGeometry>
        </mxCell>
        <mxCell id="RPfIYjRPNadJRH_iX7iX-13" value="Отобразить диалоговое окно &lt;br&gt;&lt;br&gt;&quot;Закрыть смену {имя оператора, имеющего открытую смену} на РЦ {Название РЦ} или открыть новую для совместной работы?" style="whiteSpace=wrap;html=1;fillColor=#dae8fc;strokeColor=#6c8ebf;rounded=1;" parent="1" vertex="1">
          <mxGeometry x="263.75" y="740" width="382.5" height="140" as="geometry" />
        </mxCell>
        <mxCell id="RPfIYjRPNadJRH_iX7iX-15" value="Замена смены (Закрытие других смен на этом РЦ, и сразу же открытие своей смены)" style="whiteSpace=wrap;html=1;fillColor=#d5e8d4;strokeColor=#82b366;rounded=1;" parent="1" vertex="1">
          <mxGeometry x="362.5" y="960" width="185" height="60" as="geometry" />
        </mxCell>
        <mxCell id="RPfIYjRPNadJRH_iX7iX-18" value="Открытие смены на данном РЦ" style="whiteSpace=wrap;html=1;fillColor=#d5e8d4;strokeColor=#82b366;rounded=1;" parent="1" vertex="1">
          <mxGeometry x="810" y="780" width="120" height="60" as="geometry" />
        </mxCell>
        <mxCell id="RPfIYjRPNadJRH_iX7iX-25" value="Закрыть" style="edgeStyle=orthogonalEdgeStyle;rounded=0;orthogonalLoop=1;jettySize=auto;html=1;entryX=1;entryY=0.5;entryDx=0;entryDy=0;fillColor=#dae8fc;strokeColor=#6c8ebf;" parent="1" source="RPfIYjRPNadJRH_iX7iX-20" target="RPfIYjRPNadJRH_iX7iX-15" edge="1">
          <mxGeometry x="-0.9439" relative="1" as="geometry">
            <mxPoint x="1118.75" y="635" as="targetPoint" />
            <Array as="points">
              <mxPoint x="856" y="635" />
              <mxPoint x="950" y="635" />
              <mxPoint x="950" y="990" />
            </Array>
            <mxPoint as="offset" />
          </mxGeometry>
        </mxCell>
        <mxCell id="RPfIYjRPNadJRH_iX7iX-27" value="Отмена" style="edgeStyle=orthogonalEdgeStyle;rounded=0;orthogonalLoop=1;jettySize=auto;html=1;entryX=1;entryY=0.5;entryDx=0;entryDy=0;fillColor=#dae8fc;strokeColor=#6c8ebf;" parent="1" source="RPfIYjRPNadJRH_iX7iX-20" target="RPfIYjRPNadJRH_iX7iX-1" edge="1">
          <mxGeometry x="-0.8808" relative="1" as="geometry">
            <mxPoint x="856.25" y="525" as="targetPoint" />
            <Array as="points">
              <mxPoint x="850" y="150" />
            </Array>
            <mxPoint as="offset" />
          </mxGeometry>
        </mxCell>
        <mxCell id="RPfIYjRPNadJRH_iX7iX-20" value="Отобразить диалоговое окно&lt;br&gt;&lt;br&gt;&quot;Закрыть смену {имя оператора, имеющего открытую смену}?&quot;" style="whiteSpace=wrap;html=1;fillColor=#dae8fc;strokeColor=#6c8ebf;rounded=1;" parent="1" vertex="1">
          <mxGeometry x="735" y="535" width="242.5" height="60" as="geometry" />
        </mxCell>
        <mxCell id="RPfIYjRPNadJRH_iX7iX-28" value="" style="shape=waypoint;sketch=0;size=6;pointerEvents=1;points=[];fillColor=#d5e8d4;resizable=0;rotatable=0;perimeter=centerPerimeter;snapToPoint=1;strokeColor=#82b366;rounded=1;" parent="1" vertex="1">
          <mxGeometry x="540" y="150" width="20" height="20" as="geometry" />
        </mxCell>
      </root>
    </mxGraphModel>
  </diagram>
</mxfile>
